<mxfile host="app.diagrams.net" modified="2024-01-15T09:38:43.371Z" agent="Mozilla/5.0 (Macintosh; Intel Mac OS X 10_15_7) AppleWebKit/605.1.15 (KHTML, like Gecko) Version/17.2.1 Safari/605.1.15" version="22.1.18" etag="8Xca9eOvbzwuB2zJ4Gh1" type="github">
  <diagram name="Page-1" id="5XklxeWlMFFwoa9RzVnv">
    <mxGraphModel>
      <root>
        <mxCell id="0" />
        <mxCell id="1" parent="0" />
      </root>
    </mxGraphModel>
  </diagram>
</mxfile>
